<svg xmlns="http://www.w3.org/2000/svg" viewBox="0 0 1024 1024" shape-rendering="crispEdges">
  <rect width="1024" height="1024" rx="224" fill="#FFF7F0"/>
  <rect x="232" y="176" width="56" height="56" fill="#FF8A3D"/>
  <rect x="288" y="176" width="56" height="56" fill="#FF8A3D"/>
  <rect x="680" y="176" width="56" height="56" fill="#FF8A3D"/>
  <rect x="736" y="176" width="56" height="56" fill="#FF8A3D"/>
  <rect x="176" y="232" width="56" height="56" fill="#FF8A3D"/>
  <rect x="232" y="232" width="56" height="56" fill="#D4621C"/>
  <rect x="288" y="232" width="56" height="56" fill="#D4621C"/>
  <rect x="344" y="232" width="56" height="56" fill="#FF8A3D"/>
  <rect x="624" y="232" width="56" height="56" fill="#FF8A3D"/>
  <rect x="680" y="232" width="56" height="56" fill="#D4621C"/>
  <rect x="736" y="232" width="56" height="56" fill="#D4621C"/>
  <rect x="792" y="232" width="56" height="56" fill="#FF8A3D"/>
  <rect x="176" y="288" width="56" height="56" fill="#FF8A3D"/>
  <rect x="232" y="288" width="56" height="56" fill="#D4621C"/>
  <rect x="288" y="288" width="56" height="56" fill="#D4621C"/>
  <rect x="344" y="288" width="56" height="56" fill="#FF8A3D"/>
  <rect x="624" y="288" width="56" height="56" fill="#FF8A3D"/>
  <rect x="680" y="288" width="56" height="56" fill="#D4621C"/>
  <rect x="736" y="288" width="56" height="56" fill="#D4621C"/>
  <rect x="792" y="288" width="56" height="56" fill="#FF8A3D"/>
  <rect x="120" y="344" width="56" height="56" fill="#FF8A3D"/>
  <rect x="176" y="344" width="56" height="56" fill="#FF8A3D"/>
  <rect x="232" y="344" width="56" height="56" fill="#FF8A3D"/>
  <rect x="288" y="344" width="56" height="56" fill="#FF8A3D"/>
  <rect x="344" y="344" width="56" height="56" fill="#FF8A3D"/>
  <rect x="400" y="344" width="56" height="56" fill="#FF8A3D"/>
  <rect x="456" y="344" width="56" height="56" fill="#FF8A3D"/>
  <rect x="512" y="344" width="56" height="56" fill="#FF8A3D"/>
  <rect x="568" y="344" width="56" height="56" fill="#FF8A3D"/>
  <rect x="624" y="344" width="56" height="56" fill="#FF8A3D"/>
  <rect x="680" y="344" width="56" height="56" fill="#FF8A3D"/>
  <rect x="736" y="344" width="56" height="56" fill="#FF8A3D"/>
  <rect x="792" y="344" width="56" height="56" fill="#FF8A3D"/>
  <rect x="848" y="344" width="56" height="56" fill="#FF8A3D"/>
  <rect x="120" y="400" width="56" height="56" fill="#FF8A3D"/>
  <rect x="176" y="400" width="56" height="56" fill="#FFB374"/>
  <rect x="232" y="400" width="56" height="56" fill="#FFB374"/>
  <rect x="288" y="400" width="56" height="56" fill="#FF8A3D"/>
  <rect x="344" y="400" width="56" height="56" fill="#FF8A3D"/>
  <rect x="400" y="400" width="56" height="56" fill="#FF8A3D"/>
  <rect x="456" y="400" width="56" height="56" fill="#FF8A3D"/>
  <rect x="512" y="400" width="56" height="56" fill="#FF8A3D"/>
  <rect x="568" y="400" width="56" height="56" fill="#FF8A3D"/>
  <rect x="624" y="400" width="56" height="56" fill="#FF8A3D"/>
  <rect x="680" y="400" width="56" height="56" fill="#FF8A3D"/>
  <rect x="736" y="400" width="56" height="56" fill="#FFB374"/>
  <rect x="792" y="400" width="56" height="56" fill="#FFB374"/>
  <rect x="848" y="400" width="56" height="56" fill="#FF8A3D"/>
  <rect x="120" y="456" width="56" height="56" fill="#FF8A3D"/>
  <rect x="176" y="456" width="56" height="56" fill="#FFB374"/>
  <rect x="232" y="456" width="56" height="56" fill="#FFB374"/>
  <rect x="288" y="456" width="56" height="56" fill="#1A1A1A"/>
  <rect x="344" y="456" width="56" height="56" fill="#FF8A3D"/>
  <rect x="400" y="456" width="56" height="56" fill="#FF8A3D"/>
  <rect x="456" y="456" width="56" height="56" fill="#FF8A3D"/>
  <rect x="512" y="456" width="56" height="56" fill="#FF8A3D"/>
  <rect x="568" y="456" width="56" height="56" fill="#FF8A3D"/>
  <rect x="624" y="456" width="56" height="56" fill="#FF8A3D"/>
  <rect x="680" y="456" width="56" height="56" fill="#1A1A1A"/>
  <rect x="736" y="456" width="56" height="56" fill="#FFB374"/>
  <rect x="792" y="456" width="56" height="56" fill="#FFB374"/>
  <rect x="848" y="456" width="56" height="56" fill="#FF8A3D"/>
  <rect x="64" y="512" width="56" height="56" fill="#FF8A3D"/>
  <rect x="120" y="512" width="56" height="56" fill="#FF8A3D"/>
  <rect x="176" y="512" width="56" height="56" fill="#FFB374"/>
  <rect x="232" y="512" width="56" height="56" fill="#FFB374"/>
  <rect x="288" y="512" width="56" height="56" fill="#1A1A1A"/>
  <rect x="344" y="512" width="56" height="56" fill="#FF8A3D"/>
  <rect x="400" y="512" width="56" height="56" fill="#FF8A3D"/>
  <rect x="456" y="512" width="56" height="56" fill="#FF8A3D"/>
  <rect x="512" y="512" width="56" height="56" fill="#FF8A3D"/>
  <rect x="568" y="512" width="56" height="56" fill="#FF8A3D"/>
  <rect x="624" y="512" width="56" height="56" fill="#FF8A3D"/>
  <rect x="680" y="512" width="56" height="56" fill="#1A1A1A"/>
  <rect x="736" y="512" width="56" height="56" fill="#FFB374"/>
  <rect x="792" y="512" width="56" height="56" fill="#FFB374"/>
  <rect x="848" y="512" width="56" height="56" fill="#FF8A3D"/>
  <rect x="904" y="512" width="56" height="56" fill="#FF8A3D"/>
  <rect x="64" y="568" width="56" height="56" fill="#FF8A3D"/>
  <rect x="120" y="568" width="56" height="56" fill="#FFF6E8"/>
  <rect x="176" y="568" width="56" height="56" fill="#FFF6E8"/>
  <rect x="232" y="568" width="56" height="56" fill="#FFF6E8"/>
  <rect x="288" y="568" width="56" height="56" fill="#FFF6E8"/>
  <rect x="344" y="568" width="56" height="56" fill="#FFF6E8"/>
  <rect x="400" y="568" width="56" height="56" fill="#FFF6E8"/>
  <rect x="456" y="568" width="56" height="56" fill="#FFF6E8"/>
  <rect x="512" y="568" width="56" height="56" fill="#FFF6E8"/>
  <rect x="568" y="568" width="56" height="56" fill="#FFF6E8"/>
  <rect x="624" y="568" width="56" height="56" fill="#FFF6E8"/>
  <rect x="680" y="568" width="56" height="56" fill="#FFF6E8"/>
  <rect x="736" y="568" width="56" height="56" fill="#FFF6E8"/>
  <rect x="792" y="568" width="56" height="56" fill="#FFF6E8"/>
  <rect x="848" y="568" width="56" height="56" fill="#FFF6E8"/>
  <rect x="904" y="568" width="56" height="56" fill="#FF8A3D"/>
  <rect x="64" y="624" width="56" height="56" fill="#FF8A3D"/>
  <rect x="120" y="624" width="56" height="56" fill="#FFF6E8"/>
  <rect x="176" y="624" width="56" height="56" fill="#FFF6E8"/>
  <rect x="232" y="624" width="56" height="56" fill="#FFF6E8"/>
  <rect x="288" y="624" width="56" height="56" fill="#FFF6E8"/>
  <rect x="344" y="624" width="56" height="56" fill="#FFF6E8"/>
  <rect x="400" y="624" width="56" height="56" fill="#FFF6E8"/>
  <rect x="456" y="624" width="56" height="56" fill="#FFF6E8"/>
  <rect x="512" y="624" width="56" height="56" fill="#FFF6E8"/>
  <rect x="568" y="624" width="56" height="56" fill="#FFF6E8"/>
  <rect x="624" y="624" width="56" height="56" fill="#FFF6E8"/>
  <rect x="680" y="624" width="56" height="56" fill="#FFF6E8"/>
  <rect x="736" y="624" width="56" height="56" fill="#FFF6E8"/>
  <rect x="792" y="624" width="56" height="56" fill="#FFF6E8"/>
  <rect x="848" y="624" width="56" height="56" fill="#FFF6E8"/>
  <rect x="904" y="624" width="56" height="56" fill="#FF8A3D"/>
  <rect x="64" y="680" width="56" height="56" fill="#FF8A3D"/>
  <rect x="120" y="680" width="56" height="56" fill="#FFF6E8"/>
  <rect x="176" y="680" width="56" height="56" fill="#FFF6E8"/>
  <rect x="232" y="680" width="56" height="56" fill="#FFF6E8"/>
  <rect x="288" y="680" width="56" height="56" fill="#FFF6E8"/>
  <rect x="344" y="680" width="56" height="56" fill="#FFF6E8"/>
  <rect x="400" y="680" width="56" height="56" fill="#FFF6E8"/>
  <rect x="456" y="680" width="56" height="56" fill="#1A1A1A"/>
  <rect x="512" y="680" width="56" height="56" fill="#1A1A1A"/>
  <rect x="568" y="680" width="56" height="56" fill="#FFF6E8"/>
  <rect x="624" y="680" width="56" height="56" fill="#FFF6E8"/>
  <rect x="680" y="680" width="56" height="56" fill="#FFF6E8"/>
  <rect x="736" y="680" width="56" height="56" fill="#FFF6E8"/>
  <rect x="792" y="680" width="56" height="56" fill="#FFF6E8"/>
  <rect x="848" y="680" width="56" height="56" fill="#FFF6E8"/>
  <rect x="904" y="680" width="56" height="56" fill="#FF8A3D"/>
  <rect x="120" y="736" width="56" height="56" fill="#FF8A3D"/>
  <rect x="176" y="736" width="56" height="56" fill="#FFF6E8"/>
  <rect x="232" y="736" width="56" height="56" fill="#FFF6E8"/>
  <rect x="288" y="736" width="56" height="56" fill="#FFF6E8"/>
  <rect x="344" y="736" width="56" height="56" fill="#FFF6E8"/>
  <rect x="400" y="736" width="56" height="56" fill="#FFF6E8"/>
  <rect x="456" y="736" width="56" height="56" fill="#1A1A1A"/>
  <rect x="512" y="736" width="56" height="56" fill="#1A1A1A"/>
  <rect x="568" y="736" width="56" height="56" fill="#FFF6E8"/>
  <rect x="624" y="736" width="56" height="56" fill="#FFF6E8"/>
  <rect x="680" y="736" width="56" height="56" fill="#FFF6E8"/>
  <rect x="736" y="736" width="56" height="56" fill="#FFF6E8"/>
  <rect x="792" y="736" width="56" height="56" fill="#FFF6E8"/>
  <rect x="848" y="736" width="56" height="56" fill="#FF8A3D"/>
  <rect x="176" y="792" width="56" height="56" fill="#FF8A3D"/>
  <rect x="232" y="792" width="56" height="56" fill="#FFF6E8"/>
  <rect x="288" y="792" width="56" height="56" fill="#FFF6E8"/>
  <rect x="344" y="792" width="56" height="56" fill="#FFF6E8"/>
  <rect x="400" y="792" width="56" height="56" fill="#FFF6E8"/>
  <rect x="456" y="792" width="56" height="56" fill="#FFF6E8"/>
  <rect x="512" y="792" width="56" height="56" fill="#FFF6E8"/>
  <rect x="568" y="792" width="56" height="56" fill="#FFF6E8"/>
  <rect x="624" y="792" width="56" height="56" fill="#FFF6E8"/>
  <rect x="680" y="792" width="56" height="56" fill="#FFF6E8"/>
  <rect x="736" y="792" width="56" height="56" fill="#FFF6E8"/>
  <rect x="792" y="792" width="56" height="56" fill="#FF8A3D"/>
  <rect x="232" y="848" width="56" height="56" fill="#FF8A3D"/>
  <rect x="288" y="848" width="56" height="56" fill="#FFF6E8"/>
  <rect x="344" y="848" width="56" height="56" fill="#FFF6E8"/>
  <rect x="400" y="848" width="56" height="56" fill="#FFF6E8"/>
  <rect x="456" y="848" width="56" height="56" fill="#FFF6E8"/>
  <rect x="512" y="848" width="56" height="56" fill="#FFF6E8"/>
  <rect x="568" y="848" width="56" height="56" fill="#FFF6E8"/>
  <rect x="624" y="848" width="56" height="56" fill="#FFF6E8"/>
  <rect x="680" y="848" width="56" height="56" fill="#FFF6E8"/>
  <rect x="736" y="848" width="56" height="56" fill="#FF8A3D"/>
  <rect x="288" y="904" width="56" height="56" fill="#FF8A3D"/>
  <rect x="344" y="904" width="56" height="56" fill="#FF8A3D"/>
  <rect x="400" y="904" width="56" height="56" fill="#FF8A3D"/>
  <rect x="456" y="904" width="56" height="56" fill="#FF8A3D"/>
  <rect x="512" y="904" width="56" height="56" fill="#FF8A3D"/>
  <rect x="568" y="904" width="56" height="56" fill="#FF8A3D"/>
  <rect x="624" y="904" width="56" height="56" fill="#FF8A3D"/>
  <rect x="680" y="904" width="56" height="56" fill="#FF8A3D"/>
</svg>
